# xmcd
#
# Track frame offsets: 
#        182
#        19267
#        41202
#        61437
#        80987
#        109140
#        122512
#        151112
#        176787
#
# Disc length: 2606 seconds
#
# Revision: 3
# Processed by: cddbd v1.5.1PL2 Copyright (c) Steve Scherf et al.
# Submitted via: ExactAudioCopy v0.95b2
#
DISCID=780a2c09
DTITLE=Danny and Dusty - The Lost Weekend
DYEAR=1985
DGENRE=Rock
TTITLE0=The Word Is Out
TTITLE1=Song For The Dreamers
TTITLE2=Miracle Mile
TTITLE3=Baby, We All Gotta Go Down
TTITLE4=The King Of The Losers
TTITLE5=Send Me A Postcard
TTITLE6=Down To The Bone
TTITLE7=Knockin' On Heaven's Door
TTITLE8=Bend In The Road
EXTD=
EXTT0=
EXTT1=
EXTT2=
EXTT3=
EXTT4=
EXTT5=
EXTT6=
EXTT7=
EXTT8=
PLAYORDER=
